<svg width="256" height="48" viewBox="0 0 256 48" fill="none" xmlns="http://www.w3.org/2000/svg">
<path d="M6.74063 7.6V15.9H21.0906V22.3H6.74063V30.6H22.6906V37H-0.00937478V1.2H22.6906V7.6H6.74063ZM45.3703 34.05H44.9703C44.3703 35.0833 43.437 35.9667 42.1703 36.7C40.9036 37.4333 39.337 37.8 37.4703 37.8C35.9036 37.8 34.4036 37.4833 32.9703 36.85C31.5703 36.1833 30.3203 35.2833 29.2203 34.15C28.1536 32.9833 27.3036 31.6 26.6703 30C26.037 28.4 25.7203 26.65 25.7203 24.75C25.7203 22.85 26.037 21.1 26.6703 19.5C27.3036 17.9 28.1536 16.5333 29.2203 15.4C30.3203 14.2333 31.5703 13.3333 32.9703 12.7C34.4036 12.0333 35.9036 11.7 37.4703 11.7C39.337 11.7 40.9036 12.0667 42.1703 12.8C43.437 13.5333 44.3703 14.4167 44.9703 15.45H45.3703L44.9703 11.95V1.2H51.5203V37H45.3703V34.05ZM38.8203 31.75C39.687 31.75 40.5036 31.6 41.2703 31.3C42.0703 30.9667 42.7703 30.5 43.3703 29.9C43.9703 29.3 44.4536 28.5667 44.8203 27.7C45.187 26.8333 45.3703 25.85 45.3703 24.75C45.3703 23.65 45.187 22.6667 44.8203 21.8C44.4536 20.9333 43.9703 20.2 43.3703 19.6C42.7703 19 42.0703 18.55 41.2703 18.25C40.5036 17.9167 39.687 17.75 38.8203 17.75C37.9536 17.75 37.1203 17.9167 36.3203 18.25C35.5536 18.5833 34.8703 19.05 34.2703 19.65C33.6703 20.25 33.187 20.9833 32.8203 21.85C32.4536 22.7167 32.2703 23.6833 32.2703 24.75C32.2703 25.8167 32.4536 26.7833 32.8203 27.65C33.187 28.5167 33.6703 29.25 34.2703 29.85C34.8703 30.45 35.5536 30.9167 36.3203 31.25C37.1203 31.5833 37.9536 31.75 38.8203 31.75ZM74.0508 33.8H73.6508C72.8841 35.0333 71.8508 36.0167 70.5508 36.75C69.2508 37.45 67.7674 37.8 66.1008 37.8C63.0008 37.8 60.6841 36.85 59.1508 34.95C57.6508 33.05 56.9008 30.5167 56.9008 27.35V12.5H63.4508V26.55C63.4508 28.3167 63.8341 29.6333 64.6008 30.5C65.4008 31.3333 66.5508 31.75 68.0508 31.75C68.9508 31.75 69.7341 31.5667 70.4008 31.2C71.1008 30.8 71.6841 30.2833 72.1508 29.65C72.6508 28.9833 73.0174 28.2167 73.2508 27.35C73.5174 26.45 73.6508 25.5 73.6508 24.5V12.5H80.2008V37H74.0508V33.8ZM97.5617 37.8C96.0284 37.8 94.5617 37.5833 93.1617 37.15C91.7617 36.7167 90.4784 36.0667 89.3117 35.2C88.1451 34.3333 87.1284 33.2833 86.2617 32.05C85.3951 30.7833 84.7117 29.3167 84.2117 27.65L90.5617 25.15C91.0284 26.95 91.8451 28.45 93.0117 29.65C94.1784 30.8167 95.7117 31.4 97.6117 31.4C98.3117 31.4 98.9784 31.3167 99.6117 31.15C100.278 30.95 100.862 30.6833 101.362 30.35C101.895 29.9833 102.312 29.5333 102.612 29C102.912 28.4667 103.062 27.85 103.062 27.15C103.062 26.4833 102.945 25.8833 102.712 25.35C102.478 24.8167 102.078 24.3167 101.512 23.85C100.978 23.3833 100.262 22.9333 99.3617 22.5C98.4951 22.0667 97.4117 21.6167 96.1117 21.15L93.9117 20.35C92.9451 20.0167 91.9617 19.5667 90.9617 19C89.9951 18.4333 89.1117 17.75 88.3117 16.95C87.5117 16.15 86.8451 15.2167 86.3117 14.15C85.8117 13.05 85.5617 11.8167 85.5617 10.45C85.5617 9.05 85.8284 7.75 86.3617 6.55C86.9284 5.31667 87.7117 4.25 88.7117 3.35C89.7451 2.41666 90.9617 1.7 92.3617 1.2C93.7951 0.666665 95.3784 0.399997 97.1117 0.399997C98.9117 0.399997 100.462 0.649998 101.762 1.15C103.095 1.61667 104.212 2.23333 105.112 3C106.045 3.73333 106.795 4.55 107.362 5.45C107.928 6.35 108.345 7.2 108.612 8L102.662 10.5C102.328 9.5 101.712 8.6 100.812 7.8C99.9451 7 98.7451 6.6 97.2117 6.6C95.7451 6.6 94.5284 6.95 93.5617 7.65C92.5951 8.31667 92.1117 9.2 92.1117 10.3C92.1117 11.3667 92.5784 12.2833 93.5117 13.05C94.4451 13.7833 95.9284 14.5 97.9617 15.2L100.212 15.95C101.645 16.45 102.945 17.0333 104.112 17.7C105.312 18.3333 106.328 19.1 107.162 20C108.028 20.9 108.678 21.9333 109.112 23.1C109.578 24.2333 109.812 25.55 109.812 27.05C109.812 28.9167 109.428 30.5333 108.662 31.9C107.928 33.2333 106.978 34.3333 105.812 35.2C104.645 36.0667 103.328 36.7167 101.862 37.15C100.395 37.5833 98.9617 37.8 97.5617 37.8ZM121.295 35.8L110.995 12.5H118.445L124.645 27.35H124.995L130.945 12.5H138.245L122.895 47.8H115.845L121.295 35.8ZM147.382 15.7H147.782C148.548 14.4667 149.582 13.5 150.882 12.8C152.182 12.0667 153.665 11.7 155.332 11.7C156.865 11.7 158.215 11.95 159.382 12.45C160.548 12.95 161.498 13.6667 162.232 14.6C162.998 15.5 163.565 16.6 163.932 17.9C164.332 19.1667 164.532 20.5833 164.532 22.15V37H157.982V22.95C157.982 21.1833 157.582 19.8833 156.782 19.05C156.015 18.1833 154.882 17.75 153.382 17.75C152.482 17.75 151.682 17.95 150.982 18.35C150.315 18.7167 149.732 19.2333 149.232 19.9C148.765 20.5333 148.398 21.3 148.132 22.2C147.898 23.0667 147.782 24 147.782 25V37H141.232V12.5H147.382V15.7ZM171.373 18.1H167.073V12.5H171.373V5H177.923V12.5H183.923V18.1H177.923V27.6C177.923 28.1667 177.973 28.7 178.073 29.2C178.206 29.6667 178.44 30.0667 178.773 30.4C179.24 30.9333 179.906 31.2 180.773 31.2C181.34 31.2 181.79 31.15 182.123 31.05C182.456 30.9167 182.773 30.75 183.073 30.55L184.923 36.3C184.156 36.6667 183.323 36.9333 182.423 37.1C181.556 37.3 180.59 37.4 179.523 37.4C178.29 37.4 177.173 37.2167 176.173 36.85C175.206 36.45 174.39 35.9167 173.723 35.25C172.156 33.75 171.373 31.6167 171.373 28.85V18.1ZM188.986 1.2H195.536V11.25L195.136 15.7H195.536C196.236 14.5333 197.236 13.5833 198.536 12.85C199.869 12.0833 201.352 11.7 202.986 11.7C206.152 11.7 208.486 12.6333 209.986 14.5C211.519 16.3667 212.286 18.9167 212.286 22.15V37H205.736V22.95C205.736 21.25 205.336 19.9667 204.536 19.1C203.736 18.2 202.619 17.75 201.186 17.75C200.286 17.75 199.486 17.95 198.786 18.35C198.086 18.7167 197.486 19.2333 196.986 19.9C196.519 20.5667 196.152 21.35 195.886 22.25C195.652 23.1167 195.536 24.05 195.536 25.05V37H188.986V1.2ZM216.84 37V17.668H223.644C224.562 17.668 225.417 17.821 226.209 18.127C227.019 18.415 227.721 18.829 228.315 19.369C228.909 19.909 229.377 20.557 229.719 21.313C230.061 22.051 230.232 22.87 230.232 23.77C230.232 24.688 230.061 25.525 229.719 26.281C229.377 27.019 228.909 27.658 228.315 28.198C227.721 28.738 227.019 29.161 226.209 29.467C225.417 29.755 224.562 29.899 223.644 29.899H220.485V37H216.84ZM223.698 26.443C224.652 26.443 225.372 26.173 225.858 25.633C226.344 25.093 226.587 24.472 226.587 23.77C226.587 23.428 226.524 23.095 226.398 22.771C226.29 22.447 226.11 22.168 225.858 21.934C225.624 21.682 225.327 21.484 224.967 21.34C224.607 21.196 224.184 21.124 223.698 21.124H220.485V26.443H223.698ZM232.387 23.77H235.708V25.606H235.924C236.086 25.282 236.302 24.985 236.572 24.715C236.842 24.445 237.139 24.211 237.463 24.013C237.805 23.815 238.165 23.662 238.543 23.554C238.939 23.446 239.326 23.392 239.704 23.392C240.172 23.392 240.568 23.437 240.892 23.527C241.234 23.617 241.522 23.734 241.756 23.878L240.811 27.091C240.595 26.983 240.352 26.902 240.082 26.848C239.83 26.776 239.515 26.74 239.137 26.74C238.651 26.74 238.21 26.839 237.814 27.037C237.418 27.217 237.076 27.478 236.788 27.82C236.518 28.162 236.302 28.567 236.14 29.035C235.996 29.485 235.924 29.98 235.924 30.52V37H232.387V23.77ZM248.829 23.338C249.855 23.338 250.791 23.518 251.637 23.878C252.501 24.22 253.239 24.706 253.851 25.336C254.481 25.948 254.967 26.686 255.309 27.55C255.669 28.414 255.849 29.359 255.849 30.385C255.849 31.411 255.669 32.356 255.309 33.22C254.967 34.084 254.481 34.831 253.851 35.461C253.239 36.073 252.501 36.559 251.637 36.919C250.791 37.261 249.855 37.432 248.829 37.432C247.803 37.432 246.858 37.261 245.994 36.919C245.148 36.559 244.41 36.073 243.78 35.461C243.168 34.831 242.682 34.084 242.322 33.22C241.98 32.356 241.809 31.411 241.809 30.385C241.809 29.359 241.98 28.414 242.322 27.55C242.682 26.686 243.168 25.948 243.78 25.336C244.41 24.706 245.148 24.22 245.994 23.878C246.858 23.518 247.803 23.338 248.829 23.338ZM248.829 34.165C249.279 34.165 249.711 34.084 250.125 33.922C250.557 33.742 250.935 33.49 251.259 33.166C251.583 32.842 251.835 32.446 252.015 31.978C252.213 31.51 252.312 30.979 252.312 30.385C252.312 29.791 252.213 29.26 252.015 28.792C251.835 28.324 251.583 27.928 251.259 27.604C250.935 27.28 250.557 27.037 250.125 26.875C249.711 26.695 249.279 26.605 248.829 26.605C248.361 26.605 247.92 26.695 247.506 26.875C247.092 27.037 246.723 27.28 246.399 27.604C246.075 27.928 245.814 28.324 245.616 28.792C245.436 29.26 245.346 29.791 245.346 30.385C245.346 30.979 245.436 31.51 245.616 31.978C245.814 32.446 246.075 32.842 246.399 33.166C246.723 33.49 247.092 33.742 247.506 33.922C247.92 34.084 248.361 34.165 248.829 34.165Z" fill="black"/>
</svg>
